<svg preserveAspectRatio="none" width="100%" height="100%" overflow="visible" style="display: block;" viewBox="0 0 40 40" fill="none" xmlns="http://www.w3.org/2000/svg">
<g id="Logo Gradient">
<ellipse id="Ellipse 1" cx="20" cy="19.9159" rx="16.3551" ry="16.2361" transform="rotate(15 20 19.9159)" fill="var(--fill-0, #D9D9D9)"/>
<g id="Vector">
<path d="M16.8992 33.5153C17.1313 32.6899 17.3581 31.8824 17.587 31.0755C17.6447 30.8721 17.7098 30.6709 17.7698 30.4682C17.8553 30.1798 17.8534 30.1903 18.1455 30.2243C18.5975 30.277 19.0506 30.3368 19.5046 30.352C20.6312 30.3897 21.655 30.0471 22.5831 29.4261C23.808 28.6065 24.608 27.4571 25.1005 26.0823C25.3207 25.4676 25.5323 24.8497 25.7657 24.1818C25.2415 24.1624 24.7421 24.1439 24.1671 24.1226C25.7459 22.6268 26.5219 20.7853 26.9426 18.7022C26.3496 18.7813 25.8134 18.8528 25.2159 18.9324C25.3357 18.7782 25.4101 18.6646 25.5017 18.5672C26.476 17.5314 27.0285 16.2846 27.3535 14.9177C27.5506 14.0888 27.7867 13.2691 27.9797 12.4393C28.0958 11.9397 28.1628 11.4286 28.2579 10.8882C28.049 10.8739 27.8743 10.8458 27.7012 10.8541C27.4833 10.8645 27.3848 11.0312 27.3311 11.2167C27.1803 11.7366 27.0366 12.2586 26.8926 12.7804C26.8363 12.9842 26.7824 13.1888 26.7354 13.3948C26.7101 13.5061 26.6614 13.5561 26.5384 13.5681C25.8954 13.6306 25.2535 13.7048 24.6112 13.7744C24.5863 13.7771 24.5609 13.7752 24.5138 13.7757C24.5454 13.6577 24.5622 13.5482 24.6033 13.4487C25.1774 12.0595 25.076 10.6702 24.5954 9.28583C24.3636 8.61838 24.1126 7.95733 23.8546 7.29951C23.7812 7.11215 23.6538 6.94569 23.5493 6.77079C23.4853 6.66376 23.4006 6.6536 23.2996 6.72209C23.1359 6.83314 22.9583 6.92748 22.8084 7.05469C22.064 7.68677 21.2979 8.29734 20.5946 8.97296C19.8336 9.70401 19.4293 10.6431 19.2554 11.6812C19.2174 11.9078 19.1701 12.1328 19.1216 12.3869C19.0551 12.3354 19.0105 12.3006 18.9655 12.2662C18.4832 11.8979 18.0046 11.5245 17.5158 11.165C17.3963 11.077 17.3653 11.0078 17.402 10.8584C17.6066 10.0252 17.7945 9.18799 17.9907 8.35276C18.0269 8.19869 17.9951 8.12186 17.8163 8.11396C17.6461 8.10644 17.4765 8.06643 17.3086 8.03113C17.1985 8.00798 17.1381 8.03 17.1071 8.14882C16.6313 9.97043 16.1354 11.787 15.6829 13.6144C15.5194 14.2745 15.6117 14.9555 15.7307 15.6229C15.7675 15.8289 15.8043 16.0349 15.8037 16.2717C15.4279 15.9829 15.052 15.694 14.6437 15.3802C14.3601 16.3949 14.0514 17.3601 13.9305 18.3747C13.8088 19.395 14.0425 20.3799 14.2236 21.427C13.7795 21.1689 13.3834 20.9388 12.9804 20.7046C12.9598 20.7331 12.9387 20.751 12.9319 20.7732C12.5721 21.9623 12.3199 23.1686 12.4104 24.4205C12.5752 26.6989 13.6508 28.3885 15.6919 29.4427C15.9616 29.582 16.2372 29.7109 16.5153 29.8325C16.6384 29.8863 16.6837 29.9401 16.6456 30.0839C16.3085 31.3547 15.9856 32.6293 15.6451 33.8992C15.5272 34.339 15.3662 34.767 15.2363 35.2037C15.1926 35.3504 15.1357 35.382 14.9841 35.3406C13.7328 34.999 12.5597 34.4787 11.4552 33.8036C9.44692 32.5761 7.79269 30.9753 6.47891 29.0258C4.96762 26.7833 4.03553 24.3232 3.75307 21.6268C3.59687 20.1356 3.62985 18.6494 3.87942 17.1686C4.26239 14.8964 5.09403 12.8003 6.35742 10.8774C7.53026 9.0922 9.03618 7.63651 10.8063 6.44858C12.4627 5.33689 14.2594 4.53955 16.1947 4.05872C17.7593 3.66998 19.3503 3.58964 20.9539 3.68325C22.5418 3.77595 24.0719 4.14342 25.5712 4.65707C27.6773 5.37862 29.5274 6.52557 31.1474 8.04357C32.6167 9.42038 33.7997 11.0133 34.6946 12.8205C35.5566 14.5612 36.1 16.3932 36.2972 18.3257C36.4217 19.5457 36.3967 20.767 36.211 21.9771C36.0841 22.8043 35.927 23.632 35.7071 24.4387C35.1551 26.4629 34.2106 28.2975 32.9084 29.9449C31.7091 31.4623 30.2834 32.725 28.6448 33.7529C26.8195 34.898 24.8495 35.6586 22.7238 36.0092C21.1375 36.2707 19.5453 36.3119 17.9527 36.0702C17.503 36.002 17.061 35.8843 16.6134 35.8001C16.4643 35.7721 16.4356 35.7039 16.4649 35.5682C16.6109 34.8905 16.7519 34.2117 16.8992 33.5153Z" fill="url(#paint0_linear_0_4)"/>
<path d="M19.0267 29.5466C18.6681 29.4773 18.3268 29.4103 17.9701 29.3401C18.0948 28.6422 18.2418 27.985 18.5428 27.3783C19.19 26.0743 20.274 25.3514 21.6828 25.0922C22.6129 24.921 23.5506 24.9786 24.4867 25.0428C24.5047 25.0441 24.5219 25.0555 24.5795 25.0775C24.4472 25.4363 24.3295 25.7987 24.1815 26.1484C23.7981 27.0542 23.2666 27.8614 22.5019 28.4919C21.4983 29.3195 20.3518 29.7043 19.0267 29.5466Z" fill="url(#paint1_linear_0_4)"/>
<path d="M13.2384 23.5867C13.268 23.0617 13.3476 22.5628 13.5088 22.0471C13.7197 22.1467 13.9168 22.233 14.1078 22.3311C15.0071 22.7926 15.8385 23.3445 16.5119 24.1132C17.3969 25.1234 17.6771 26.299 17.4531 27.6004C17.375 28.0542 17.2234 28.4953 17.1075 28.9428C17.0798 29.0499 17.0365 29.0993 16.9123 29.0609C15.826 28.7256 14.8775 28.1844 14.1875 27.2533C13.6786 26.5666 13.4198 25.7783 13.3038 24.9459C13.2422 24.504 13.2575 24.0513 13.2384 23.5867Z" fill="url(#paint2_linear_0_4)"/>
<path d="M17.2887 23.4827C15.608 22.5305 14.7637 21.0947 14.7161 19.1866C14.6981 18.4627 14.8133 17.7523 14.9616 17.0466C14.9723 16.9958 14.9881 16.9461 15.0112 16.8601C15.3195 17.0289 15.6144 17.1823 15.9017 17.3491C16.7241 17.8266 17.4812 18.3857 18.0588 19.1547C18.9717 20.3701 19.19 21.7005 18.7017 23.1436C18.6361 23.3374 18.5683 23.5309 18.5138 23.7279C18.481 23.8463 18.4166 23.8758 18.3104 23.8394C17.9744 23.7241 17.6389 23.6071 17.2887 23.4827Z" fill="url(#paint3_linear_0_4)"/>
<path d="M23.1971 13.8277C22.7084 14.2844 22.1501 14.6093 21.5655 14.8913C21.3271 15.0063 21.2564 14.9773 21.1026 14.7601C20.7264 14.2286 20.4278 13.6596 20.2341 13.0346C19.9298 12.0525 20.1468 11.1519 20.664 10.3075C21.188 9.45188 21.9537 8.83161 22.7514 8.24833C22.8563 8.17158 22.9631 8.0973 23.1003 7.99958C23.2622 8.34931 23.4237 8.67221 23.563 9.0044C23.908 9.82676 24.1509 10.6747 24.1266 11.5775C24.1035 12.4383 23.8788 13.2208 23.1971 13.8277Z" fill="url(#paint4_linear_0_4)"/>
<path d="M22.09 20.2066C23.258 19.7196 24.4528 19.6478 25.7038 19.838C25.3769 21.2887 24.7648 22.5421 23.5577 23.4396C22.2865 24.3848 20.8659 24.4401 19.358 24.1308C19.517 23.2901 19.7048 22.4782 20.1661 21.7605C20.6317 21.0363 21.3069 20.5639 22.09 20.2066Z" fill="url(#paint5_linear_0_4)"/>
<path d="M18.4105 18.0721C16.8442 17.0436 16.3083 15.5735 16.541 13.7867C16.6131 13.233 16.7717 12.6905 16.8928 12.1434C16.9053 12.0868 16.9326 12.0334 16.965 11.9462C17.1479 12.0461 17.3232 12.1313 17.4878 12.2337C18.2261 12.6936 18.9241 13.212 19.4387 13.92C20.3292 15.1453 20.5217 16.4994 20.0791 17.9454C20.0289 18.1094 19.9811 18.2751 19.9159 18.4332C19.8057 18.7006 19.641 18.762 19.3881 18.6259C19.063 18.4509 18.7447 18.2631 18.4105 18.0721Z" fill="url(#paint6_linear_0_4)"/>
<path d="M21.0552 17.4676C21.6229 15.9411 22.7327 15.0718 24.2687 14.699C24.9607 14.5311 25.6642 14.4926 26.3727 14.5099C26.4241 14.5111 26.4752 14.5207 26.5213 14.5259C26.5296 14.5499 26.5405 14.5645 26.5371 14.574C26.2504 15.3745 26.0128 16.1974 25.6625 16.9692C25.2019 17.9841 24.3277 18.5641 23.2939 18.9066C22.557 19.1507 21.79 19.1718 21.0213 19.1644C20.8853 19.1631 20.8549 19.0986 20.8446 18.9858C20.7974 18.4695 20.8908 17.9731 21.0552 17.4676Z" fill="url(#paint7_linear_0_4)"/>
</g>
</g>
<defs>
<linearGradient id="paint0_linear_0_4" x1="24.1948" y1="4.23272" x2="15.7947" y2="35.5822" gradientUnits="userSpaceOnUse">
<stop stop-color="#50A257"/>
<stop offset="1" stop-color="#324A41"/>
</linearGradient>
<linearGradient id="paint1_linear_0_4" x1="24.1948" y1="4.23272" x2="15.7947" y2="35.5822" gradientUnits="userSpaceOnUse">
<stop stop-color="#50A257"/>
<stop offset="1" stop-color="#324A41"/>
</linearGradient>
<linearGradient id="paint2_linear_0_4" x1="24.1948" y1="4.23272" x2="15.7947" y2="35.5822" gradientUnits="userSpaceOnUse">
<stop stop-color="#50A257"/>
<stop offset="1" stop-color="#324A41"/>
</linearGradient>
<linearGradient id="paint3_linear_0_4" x1="24.1948" y1="4.23272" x2="15.7947" y2="35.5822" gradientUnits="userSpaceOnUse">
<stop stop-color="#50A257"/>
<stop offset="1" stop-color="#324A41"/>
</linearGradient>
<linearGradient id="paint4_linear_0_4" x1="24.1948" y1="4.23272" x2="15.7947" y2="35.5822" gradientUnits="userSpaceOnUse">
<stop stop-color="#50A257"/>
<stop offset="1" stop-color="#324A41"/>
</linearGradient>
<linearGradient id="paint5_linear_0_4" x1="24.1948" y1="4.23272" x2="15.7947" y2="35.5822" gradientUnits="userSpaceOnUse">
<stop stop-color="#50A257"/>
<stop offset="1" stop-color="#324A41"/>
</linearGradient>
<linearGradient id="paint6_linear_0_4" x1="24.1948" y1="4.23272" x2="15.7947" y2="35.5822" gradientUnits="userSpaceOnUse">
<stop stop-color="#50A257"/>
<stop offset="1" stop-color="#324A41"/>
</linearGradient>
<linearGradient id="paint7_linear_0_4" x1="24.1948" y1="4.23272" x2="15.7947" y2="35.5822" gradientUnits="userSpaceOnUse">
<stop stop-color="#50A257"/>
<stop offset="1" stop-color="#324A41"/>
</linearGradient>
</defs>
</svg>
