<svg preserveAspectRatio="none" width="100%" height="100%" overflow="visible" style="display: block;" viewBox="0 0 210 228" fill="none" xmlns="http://www.w3.org/2000/svg">
<g id="Uniswap_icon_white 1" opacity="0.03" clip-path="url(#clip0_0_4)">
<path id="Vector" d="M170.701 34.5519C171.007 29.1787 171.737 25.6346 173.207 22.398C173.788 21.1169 174.333 20.0684 174.417 20.0684C174.501 20.0684 174.249 21.014 173.855 22.1695C172.787 25.3107 172.612 29.607 173.348 34.6056C174.282 40.9479 174.812 41.863 181.536 48.7141C184.689 51.9276 188.357 55.9803 189.686 57.7202L192.104 60.8844L189.686 58.6233C186.73 55.8584 179.93 50.4656 178.428 49.6948C177.421 49.1778 177.271 49.1867 176.65 49.8033C176.078 50.3713 175.957 51.225 175.878 55.2606C175.754 61.5495 174.894 65.5868 172.819 69.623C171.697 71.8063 171.52 71.3404 172.536 68.876C173.294 67.0362 173.371 66.2272 173.365 60.1389C173.354 47.9056 171.898 44.9646 163.355 39.9265C161.192 38.6503 157.626 36.8096 155.433 35.836C153.239 34.8624 151.496 34.0144 151.56 33.951C151.802 33.711 160.132 36.1353 163.484 37.4213C168.472 39.3343 169.295 39.5821 169.901 39.3514C170.307 39.1967 170.503 38.0177 170.701 34.5519Z" fill="var(--fill-0, white)"/>
<path id="Vector_2" d="M65.3263 16.7549C62.3674 16.2981 62.2424 16.2445 63.6347 16.0316C66.3033 15.6232 72.6033 16.1798 76.945 17.2072C87.0802 19.605 96.3028 25.7473 106.148 36.6562L108.763 39.5543L112.505 38.9556C128.267 36.4347 144.302 38.4382 157.714 44.6044C161.403 46.3008 167.221 49.6776 167.947 50.5454C168.179 50.822 168.604 52.6023 168.892 54.502C169.888 61.0741 169.39 66.1111 167.37 69.8736C166.271 71.9214 166.21 72.5702 166.948 74.3222C167.539 75.7207 169.183 76.7556 170.811 76.753C174.144 76.7488 177.731 71.3866 179.394 63.9256L180.054 60.9622L181.362 62.4368C188.536 70.5266 194.171 81.5589 195.139 89.4117L195.391 91.459L194.185 89.5977C192.11 86.3952 190.025 84.2145 187.355 82.4561C182.541 79.2862 177.451 78.2071 163.972 77.5006C151.798 76.8617 144.908 75.8268 138.076 73.6099C126.452 69.8379 120.592 64.8145 106.784 46.7851C100.651 38.777 96.8609 34.3463 93.0898 30.7781C84.5218 22.6706 76.1029 18.4186 65.3263 16.7549Z" fill="var(--fill-0, white)"/>
<path id="Vector_3" d="M71.0729 55.5359C65.0669 47.306 61.3505 34.688 62.1553 25.2556L62.4036 22.3366L63.7712 22.5849C66.3385 23.051 70.7653 24.6908 72.838 25.9439C78.5263 29.3821 80.9891 33.9089 83.4944 45.5329C84.2284 48.9376 85.1912 52.7904 85.6343 54.0948C86.3478 56.1946 89.0426 61.0987 91.234 64.2839C92.8121 66.5776 91.7637 67.6645 88.2751 67.3514C82.9469 66.8728 75.7292 61.9151 71.0729 55.5359Z" fill="var(--fill-0, white)"/>
<path id="Vector_4" d="M163.408 116.785C135.339 105.537 125.453 95.7742 125.453 79.3009C125.453 76.877 125.537 74.8933 125.639 74.8933C125.741 74.8933 126.827 75.6934 128.052 76.6716C133.744 81.2148 140.118 83.1554 157.763 85.7175C168.146 87.2252 173.989 88.443 179.379 90.2218C196.512 95.8766 207.111 107.352 209.639 122.982C210.373 127.524 209.943 136.041 208.752 140.53C207.812 144.075 204.943 150.466 204.182 150.711C203.971 150.779 203.764 149.974 203.71 148.879C203.421 143.01 200.441 137.296 195.437 133.016C189.746 128.15 182.101 124.275 163.408 116.785Z" fill="var(--fill-0, white)"/>
<path id="Vector_5" d="M143.702 121.457C143.351 119.375 142.741 116.715 142.347 115.547L141.631 113.423L142.961 114.909C144.802 116.966 146.257 119.597 147.49 123.102C148.431 125.777 148.537 126.573 148.53 130.919C148.522 135.187 148.405 136.081 147.536 138.49C146.166 142.286 144.465 144.978 141.612 147.868C136.485 153.062 129.893 155.937 120.38 157.13C118.726 157.337 113.907 157.686 109.67 157.905C98.9919 158.458 91.9642 159.6 85.6495 161.806C84.7413 162.124 83.9307 162.317 83.8483 162.235C83.5931 161.982 87.8923 159.431 91.4434 157.729C96.4509 155.328 101.436 154.018 112.604 152.167C118.121 151.252 123.818 150.143 125.265 149.701C138.928 145.533 145.951 134.774 143.702 121.457Z" fill="var(--fill-0, white)"/>
<path id="Vector_6" d="M156.57 144.2C152.841 136.222 151.984 128.518 154.027 121.333C154.246 120.566 154.597 119.937 154.809 119.937C155.02 119.937 155.9 120.411 156.764 120.99C158.483 122.141 161.929 124.08 171.112 129.063C182.571 135.28 189.104 140.095 193.547 145.595C197.437 150.413 199.845 155.899 201.004 162.589C201.66 166.379 201.276 175.497 200.299 179.314C197.218 191.346 190.058 200.798 179.845 206.313C178.349 207.121 177.005 207.784 176.86 207.787C176.714 207.79 177.26 206.41 178.072 204.721C181.507 197.574 181.898 190.621 179.301 182.882C177.71 178.144 174.468 172.363 167.921 162.591C160.309 151.23 158.442 148.207 156.57 144.2Z" fill="var(--fill-0, white)"/>
<path id="Vector_7" d="M51.1394 187.25C61.5557 178.497 74.5159 172.279 86.3216 170.37C91.4093 169.547 99.8849 169.874 104.596 171.074C112.148 172.997 118.904 177.306 122.417 182.438C125.851 187.455 127.324 191.827 128.858 201.554C129.463 205.39 130.121 209.243 130.32 210.116C131.472 215.156 133.713 219.186 136.491 221.209C140.902 224.423 148.498 224.623 155.971 221.722C157.239 221.229 158.34 220.889 158.418 220.966C158.689 221.234 154.926 223.74 152.271 225.06C148.699 226.836 145.859 227.522 142.085 227.522C135.241 227.522 129.559 224.057 124.818 216.992C123.885 215.601 121.787 211.436 120.157 207.737C115.151 196.374 112.68 192.912 106.867 189.123C101.809 185.827 95.2854 185.236 90.3777 187.631C83.9318 190.777 82.1331 198.976 86.75 204.171C88.5848 206.237 92.0068 208.018 94.805 208.364C100.04 209.012 104.539 205.049 104.539 199.788C104.539 196.373 103.22 194.424 99.8991 192.933C95.3642 190.896 90.489 193.277 90.5126 197.517C90.5226 199.325 91.3138 200.46 93.135 201.28C94.3031 201.806 94.3304 201.848 93.3776 201.651C89.2164 200.792 88.2415 195.8 91.5873 192.486C95.6041 188.507 103.91 190.262 106.762 195.693C107.961 197.975 108.1 202.518 107.055 205.261C104.717 211.402 97.8994 214.631 90.9836 212.874C86.2748 211.678 84.3575 210.382 78.6802 204.562C68.8154 194.449 64.9855 192.489 50.7636 190.279L48.0383 189.856L51.1394 187.25Z" fill="var(--fill-0, white)"/>
<path id="Vector_8" fill-rule="evenodd" clip-rule="evenodd" d="M4.85179 6.24016C37.7962 46.0346 60.4868 62.4531 63.0084 65.9219C65.09 68.7861 64.3067 71.3608 60.7399 73.3792C58.7564 74.5008 54.6788 75.6377 52.637 75.6377C50.3277 75.6377 49.5349 74.7514 49.5349 74.7514C48.196 73.4874 47.4418 73.7086 40.566 61.5616C31.02 46.8199 23.0314 34.591 22.8135 34.3862C22.3095 33.9127 22.3182 33.9287 39.5927 64.69C42.3837 71.1013 40.1478 73.4549 40.1478 74.3679C40.1478 76.2255 39.6386 77.2022 37.3361 79.758C33.4978 84.0201 31.7819 88.8081 30.5433 98.7182C29.1547 109.828 25.2502 117.675 14.4296 131.105C8.09561 138.968 7.05915 140.409 5.46095 143.577C3.44779 147.567 2.89425 149.802 2.6699 154.841C2.43278 160.169 2.89461 163.61 4.53006 168.704C5.96185 173.164 7.45637 176.108 11.2771 181.998C14.5743 187.08 16.4728 190.858 16.4728 192.335C16.4728 193.511 16.6983 193.512 21.8076 192.364C34.0348 189.616 43.9632 184.783 49.5472 178.86C53.003 175.194 53.8141 173.17 53.8409 168.146C53.8582 164.86 53.7416 164.172 52.8491 162.281C51.3965 159.205 48.7517 156.647 42.9223 152.681C35.2843 147.484 32.0221 143.301 31.1209 137.547C30.3817 132.826 31.2392 129.496 35.4647 120.682C39.8382 111.559 40.922 107.671 41.6551 98.4755C42.1286 92.5349 42.7844 90.1919 44.4995 88.3111C46.2883 86.35 47.8986 85.686 52.3254 85.0839C59.5424 84.1026 64.1382 82.2439 67.9156 78.7798C71.1926 75.7748 72.5639 72.8786 72.7745 68.5193L72.9341 65.2154L71.1029 63.0903C64.4711 55.3951 0.410637 0.190848 0.00252415 0.190848C-0.0846599 0.190848 2.0976 2.91323 4.85179 6.24016ZM20.1954 160.87C21.6948 158.227 20.8982 154.829 18.3901 153.17C16.0204 151.601 12.3391 152.34 12.3391 154.383C12.3391 155.007 12.6856 155.461 13.4665 155.861C14.7814 156.535 14.8768 157.292 13.8423 158.839C12.7945 160.406 12.8791 161.784 14.0809 162.721C16.0177 164.23 18.7595 163.4 20.1954 160.87Z" fill="var(--fill-0, white)"/>
<path id="Vector_9" fill-rule="evenodd" clip-rule="evenodd" d="M77.4884 86.817C74.1006 87.8525 70.8067 91.4264 69.7872 95.1737C69.1656 97.4595 69.5184 101.47 70.4498 102.708C71.9549 104.709 73.4102 105.236 77.3514 105.208C85.0673 105.154 91.7747 101.861 92.5544 97.7437C93.1938 94.3689 90.248 89.6917 86.1903 87.6382C84.0961 86.5791 79.643 86.1588 77.4884 86.817ZM86.5084 93.8367C87.6981 92.154 87.1778 90.3353 85.1539 89.1055C81.3004 86.7635 75.4724 88.7015 75.4724 92.3248C75.4724 94.1283 78.5117 96.0962 81.2973 96.0962C83.1516 96.0962 85.6889 94.9956 86.5084 93.8367Z" fill="var(--fill-0, white)"/>
</g>
<defs>
<clipPath id="clip0_0_4">
<rect width="210" height="228" fill="white"/>
</clipPath>
</defs>
</svg>
